<?xml version="1.0" encoding="UTF-8" standalone="no"?>
<!-- Created with Inkscape (http://www.inkscape.org/) -->
<svg
   xmlns:svg="http://www.w3.org/2000/svg"
   xmlns="http://www.w3.org/2000/svg"
   version="1.0"
   width="283.5"
   height="283.5"
   id="svg2"
   xml:space="preserve"><defs
     id="defs5"><clipPath
       id="clipPath19"><path
         d="M 0,0 L 2267.99,0 L 2267.99,2267.98 L 0,2267.98 L 0,0 z"
         id="path21" /></clipPath></defs><g
     transform="matrix(1.25,0,0,-1.25,0,283.5)"
     id="g11"><g
       transform="scale(0.1,0.1)"
       id="g13"><g
         id="g15"><g
           clip-path="url(#clipPath19)"
           id="g17"><path
             d="M 2266.91,1132.91 C 2266.91,1756.43 1756.43,2266.9 1132.91,2266.9 C 511.551,2266.9 1.07031,1756.42 1.07031,1132.91 C 1.07031,511.543 511.551,1.07422 1132.91,1.07422 C 1756.43,1.07422 2266.91,511.543 2266.91,1132.91"
             id="path23"
             style="fill:#e23828;fill-opacity:1;fill-rule:nonzero;stroke:none" /><path
             d="M 2266.91,1132.91 C 2266.91,1756.43 1756.43,2266.9 1132.91,2266.9 C 511.551,2266.9 1.07031,1756.42 1.07031,1132.91 C 1.07031,511.543 511.551,1.07422 1132.91,1.07422 C 1756.43,1.07422 2266.91,511.543 2266.91,1132.91 z"
             id="path25"
             style="fill:none;stroke:#e23828;stroke-width:2.1500001;stroke-linecap:butt;stroke-linejoin:miter;stroke-miterlimit:4;stroke-dasharray:none;stroke-opacity:1" /><path
             d="M 1983.23,1132.91 C 1983.23,1600.18 1600.19,1983.23 1132.91,1983.23 C 667.789,1983.23 284.75,1600.18 284.75,1132.91 C 284.75,667.781 667.789,284.754 1132.91,284.754 C 1600.19,284.754 1983.23,667.781 1983.23,1132.91"
             id="path27"
             style="fill:#ffffff;fill-opacity:1;fill-rule:nonzero;stroke:none" /><path
             d="M 1983.23,1132.91 C 1983.23,1600.18 1600.19,1983.23 1132.91,1983.23 C 667.789,1983.23 284.75,1600.18 284.75,1132.91 C 284.75,667.781 667.789,284.754 1132.91,284.754 C 1600.19,284.754 1983.23,667.781 1983.23,1132.91 z"
             id="path29"
             style="fill:none;stroke:#e23828;stroke-width:2.1500001;stroke-linecap:butt;stroke-linejoin:miter;stroke-miterlimit:4;stroke-dasharray:none;stroke-opacity:1" /><path
             d="M 1512.35,613.793 C 1557.71,613.793 1600.19,625.301 1637.63,644.754 C 1680.11,670.672 1716.83,701.633 1747.79,738.352 C 1770.83,769.312 1790.27,803.863 1804.67,840.594 C 1816.19,862.914 1824.83,888.82 1829.87,916.914 C 1841.39,982.422 1850.03,1050.1 1850.03,1118.51 C 1850.03,1163.87 1847.15,1209.23 1841.39,1254.59 C 1835.63,1311.47 1824.83,1365.47 1804.67,1415.86 C 1790.27,1456.18 1770.83,1492.9 1744.91,1526.74 C 1716.83,1569.22 1677.23,1605.94 1631.87,1631.87 C 1595.15,1651.32 1554.83,1659.95 1512.35,1662.83 C 1472.75,1659.95 1433.15,1651.32 1396.43,1631.87 C 1351.07,1605.94 1311.47,1569.23 1282.67,1526.75 C 1257.47,1492.91 1237.31,1456.2 1223.63,1418.75 C 1203.47,1365.47 1191.95,1311.47 1186.19,1257.47 C 1180.43,1212.11 1178.27,1166.74 1178.27,1118.51 C 1178.27,1050.1 1183.31,982.422 1197.71,914.023 C 1203.47,888.82 1212.11,862.914 1223.63,837.711 C 1237.31,803.863 1257.47,769.312 1279.8,738.352 C 1311.47,701.633 1348.19,667.781 1387.79,644.754 C 1427.39,625.301 1469.87,613.793 1512.35,613.793"
             id="path31"
             style="fill:#000000;fill-opacity:1;fill-rule:nonzero;stroke:none" /><path
             d="M 1512.35,613.793 C 1557.71,613.793 1600.19,625.301 1637.63,644.754 C 1680.11,670.672 1716.83,701.633 1747.79,738.352 C 1770.83,769.312 1790.27,803.863 1804.67,840.594 C 1816.19,862.914 1824.83,888.82 1829.87,916.914 C 1841.39,982.422 1850.03,1050.1 1850.03,1118.51 C 1850.03,1163.87 1847.15,1209.23 1841.39,1254.59 C 1835.63,1311.47 1824.83,1365.47 1804.67,1415.86 C 1790.27,1456.18 1770.83,1492.9 1744.91,1526.74 C 1716.83,1569.22 1677.23,1605.94 1631.87,1631.87 C 1595.15,1651.32 1554.83,1659.95 1512.35,1662.83 C 1472.75,1659.95 1433.15,1651.32 1396.43,1631.87 C 1351.07,1605.94 1311.47,1569.23 1282.67,1526.75 C 1257.47,1492.91 1237.31,1456.2 1223.63,1418.75 C 1203.47,1365.47 1191.95,1311.47 1186.19,1257.47 C 1180.43,1212.11 1178.27,1166.74 1178.27,1118.51 C 1178.27,1050.1 1183.31,982.422 1197.71,914.023 C 1203.47,888.82 1212.11,862.914 1223.63,837.711 C 1237.31,803.863 1257.47,769.312 1279.8,738.352 C 1311.47,701.633 1348.19,667.781 1387.79,644.754 C 1427.39,625.301 1469.87,613.793 1512.35,613.793 z"
             id="path33"
             style="fill:none;stroke:#000000;stroke-width:2.1500001;stroke-linecap:butt;stroke-linejoin:miter;stroke-miterlimit:4;stroke-dasharray:none;stroke-opacity:1" /><path
             d="M 783.711,814.664 C 769.309,806.742 755.629,800.992 741.23,798.113 C 707.391,789.461 672.828,792.352 641.871,803.863 C 625.309,809.633 608.031,814.664 593.629,823.312 L 508.672,681.473 C 545.391,656.273 587.871,638.992 630.352,630.352 C 664.91,622.422 698.75,616.672 732.59,616.672 C 735.469,616.672 738.352,616.672 741.23,616.672 C 766.43,619.551 795.23,622.422 820.43,627.473 C 849.23,633.223 874.441,644.754 897.469,656.273 C 922.672,670.672 945.711,690.102 965.16,713.152 C 991.07,741.23 1010.52,769.312 1030.67,800.992 C 1064.51,871.543 1087.55,948.594 1095.47,1027.78 C 1104.11,1076.03 1109.87,1127.15 1109.87,1175.4 C 1109.87,1237.31 1101.23,1299.95 1089.71,1362.58 C 1078.91,1415.86 1058.75,1464.1 1030.67,1509.46 C 1001.87,1551.94 965.16,1589.38 925.551,1617.46 C 880.191,1645.54 826.191,1659.94 775.07,1659.94 C 726.828,1659.94 681.469,1651.31 636.109,1637.62 C 587.871,1620.33 545.391,1589.38 514.43,1549.78 C 497.148,1529.62 483.469,1509.46 474.828,1487.14 C 466.191,1469.86 457.551,1453.3 451.789,1433.14 C 438.109,1393.54 432.352,1351.07 432.352,1305.7 C 432.352,1248.81 443.148,1189.06 469.059,1135.06 C 491.379,1092.58 520.18,1055.87 556.898,1027.78 C 593.621,998.992 636.102,982.422 681.461,976.672 C 695.859,973.793 713.141,973.793 726.82,973.793 C 732.578,973.793 738.34,973.793 744.102,973.793 C 769.301,976.672 795.23,982.422 817.551,991.07 C 834.828,996.102 849.23,1004.75 862.91,1016.27 C 874.441,1022.03 885.949,1030.67 897.469,1039.31 C 891.711,1010.5 885.949,982.422 877.309,956.512 C 874.441,945.703 868.672,934.191 865.789,922.672 C 857.148,905.391 849.23,888.82 840.59,871.543 C 826.191,846.344 806.75,829.062 783.711,814.664"
             id="path35"
             style="fill:#000000;fill-opacity:1;fill-rule:nonzero;stroke:none" /><path
             d="M 783.711,814.664 C 769.309,806.742 755.629,800.992 741.23,798.113 C 707.391,789.461 672.828,792.352 641.871,803.863 C 625.309,809.633 608.031,814.664 593.629,823.312 L 508.672,681.473 C 545.391,656.273 587.871,638.992 630.352,630.352 C 664.91,622.422 698.75,616.672 732.59,616.672 C 735.469,616.672 738.352,616.672 741.23,616.672 C 766.43,619.551 795.23,622.422 820.43,627.473 C 849.23,633.223 874.441,644.754 897.469,656.273 C 922.672,670.672 945.711,690.102 965.16,713.152 C 991.07,741.23 1010.52,769.312 1030.67,800.992 C 1064.51,871.543 1087.55,948.594 1095.47,1027.78 C 1104.11,1076.03 1109.87,1127.15 1109.87,1175.4 C 1109.87,1237.31 1101.23,1299.95 1089.71,1362.58 C 1078.91,1415.86 1058.75,1464.1 1030.67,1509.46 C 1001.87,1551.94 965.16,1589.38 925.551,1617.46 C 880.191,1645.54 826.191,1659.94 775.07,1659.94 C 726.828,1659.94 681.469,1651.31 636.109,1637.62 C 587.871,1620.33 545.391,1589.38 514.43,1549.78 C 497.148,1529.62 483.469,1509.46 474.828,1487.14 C 466.191,1469.86 457.551,1453.3 451.789,1433.14 C 438.109,1393.54 432.352,1351.07 432.352,1305.7 C 432.352,1248.81 443.148,1189.06 469.059,1135.06 C 491.379,1092.58 520.18,1055.87 556.898,1027.78 C 593.621,998.992 636.102,982.422 681.461,976.672 C 695.859,973.793 713.141,973.793 726.82,973.793 C 732.578,973.793 738.34,973.793 744.102,973.793 C 769.301,976.672 795.23,982.422 817.551,991.07 C 834.828,996.102 849.23,1004.75 862.91,1016.27 C 874.441,1022.03 885.949,1030.67 897.469,1039.31 C 891.711,1010.5 885.949,982.422 877.309,956.512 C 874.441,945.703 868.672,934.191 865.789,922.672 C 857.148,905.391 849.23,888.82 840.59,871.543 C 826.191,846.344 806.75,829.062 783.711,814.664 z"
             id="path37"
             style="fill:none;stroke:#000000;stroke-width:2.1500001;stroke-linecap:butt;stroke-linejoin:miter;stroke-miterlimit:4;stroke-dasharray:none;stroke-opacity:1" /><path
             d="M 1574.99,1444.67 L 1580.75,1433.14 L 1589.39,1424.5 L 1595.15,1412.99 L 1600.19,1402.18 L 1605.95,1387.78 L 1611.71,1373.38 L 1617.47,1362.58 L 1623.23,1348.18 L 1626.11,1333.78 L 1631.87,1319.38 L 1634.75,1305.7 L 1637.63,1294.19 L 1640.51,1279.78 L 1642.67,1266.09 L 1642.67,1254.58 L 1645.55,1243.06 L 1645.55,1231.54 L 1648.43,1220.73 L 1648.43,1197.7 L 1651.31,1189.05 L 1651.31,1132.9 L 1654.2,1127.14 L 1654.2,1106.97 L 1651.31,1104.1 L 1651.31,1058.74 L 1648.43,1050.09 L 1648.43,1024.89 L 1645.55,1019.14 L 1645.55,996.094 L 1642.67,991.062 L 1642.67,979.543 L 1640.51,973.781 L 1640.51,968.012 L 1637.63,962.262 L 1637.63,956.504 L 1634.75,950.73 L 1634.75,945.691 L 1631.87,937.062 L 1631.87,931.301 L 1628.99,925.543 L 1626.11,919.781 L 1626.11,911.133 L 1623.23,905.383 L 1620.35,900.344 L 1617.47,894.582 L 1617.47,888.812 L 1614.59,883.062 L 1611.71,877.301 L 1608.83,871.531 L 1605.95,868.652 L 1605.95,862.902 L 1603.07,860.023 L 1600.19,854.98 L 1597.31,849.223 L 1595.15,846.332 L 1589.39,840.582 L 1586.51,837.703 L 1583.63,831.934 L 1577.87,826.184 L 1574.99,823.301 L 1569.23,817.543 L 1563.47,814.652 L 1560.59,811.773 L 1554.83,806.73 L 1551.95,806.73 L 1546.91,803.852 L 1544.03,800.98 L 1538.27,798.102 L 1532.51,798.102 L 1529.63,795.223 L 1520.99,795.223 L 1518.11,792.344 L 1506.59,792.344 L 1503.71,795.223 L 1498.67,795.223 L 1495.79,798.102 L 1487.15,798.102 L 1484.27,800.98 L 1478.51,803.852 L 1475.63,806.73 L 1469.87,806.73 L 1464.11,811.773 L 1461.23,814.652 L 1456.19,817.543 L 1453.31,823.301 L 1447.55,826.184 L 1444.68,831.934 L 1438.91,837.703 L 1436.03,840.582 L 1433.15,846.332 L 1430.28,849.223 L 1424.51,854.98 L 1424.51,860.023 L 1421.63,862.902 L 1418.75,868.652 L 1415.87,871.531 L 1412.99,877.301 L 1410.83,883.062 L 1410.83,888.812 L 1407.95,894.582 L 1405.07,900.344 L 1402.19,905.383 L 1402.19,911.133 L 1399.32,919.781 L 1396.43,925.543 L 1396.43,931.301 L 1393.55,937.062 L 1390.67,945.691 L 1390.67,950.73 L 1387.79,956.504 L 1387.79,962.262 L 1384.92,968.012 L 1384.92,979.543 L 1382.03,985.293 L 1382.03,996.094 L 1379.15,1001.86 L 1379.15,1024.89 L 1376.27,1030.66 L 1376.27,1058.74 L 1373.39,1064.49 L 1373.39,1180.42 L 1376.27,1189.05 L 1376.27,1220.73 L 1379.15,1231.54 L 1379.15,1243.06 L 1382.03,1254.58 L 1384.92,1266.09 L 1384.92,1279.78 L 1387.79,1294.19 L 1390.67,1305.7 L 1396.43,1319.38 L 1399.32,1333.78 L 1402.19,1348.18 L 1407.95,1362.58 L 1412.99,1373.38 L 1418.75,1387.78 L 1424.51,1402.18 L 1430.28,1412.99 L 1438.91,1424.5 L 1444.68,1433.14 L 1453.31,1444.67 L 1458.35,1453.3 L 1466.99,1458.34 L 1472.75,1466.98 L 1481.39,1469.86 L 1490.04,1475.62 L 1498.67,1478.5 L 1503.71,1478.5 L 1512.35,1481.38 L 1520.99,1478.5 L 1529.63,1478.5 L 1535.39,1475.62 L 1544.03,1469.86 L 1551.95,1466.98 L 1557.71,1458.34 L 1566.35,1453.3 L 1574.99,1444.67"
             id="path39"
             style="fill:#ffffff;fill-opacity:1;fill-rule:nonzero;stroke:none" /><path
             d="M 1574.99,1444.67 L 1580.75,1433.14 L 1589.39,1424.5 L 1595.15,1412.99 L 1600.19,1402.18 L 1605.95,1387.78 L 1611.71,1373.38 L 1617.47,1362.58 L 1623.23,1348.18 L 1626.11,1333.78 L 1631.87,1319.38 L 1634.75,1305.7 L 1637.63,1294.19 L 1640.51,1279.78 L 1642.67,1266.09 L 1642.67,1254.58 L 1645.55,1243.06 L 1645.55,1231.54 L 1648.43,1220.73 L 1648.43,1197.7 L 1651.31,1189.05 L 1651.31,1132.9 L 1654.2,1127.14 L 1654.2,1106.97 L 1651.31,1104.1 L 1651.31,1058.74 L 1648.43,1050.09 L 1648.43,1024.89 L 1645.55,1019.14 L 1645.55,996.094 L 1642.67,991.062 L 1642.67,979.543 L 1640.51,973.781 L 1640.51,968.012 L 1637.63,962.262 L 1637.63,956.504 L 1634.75,950.73 L 1634.75,945.691 L 1631.87,937.062 L 1631.87,931.301 L 1628.99,925.543 L 1626.11,919.781 L 1626.11,911.133 L 1623.23,905.383 L 1620.35,900.344 L 1617.47,894.582 L 1617.47,888.812 L 1614.59,883.062 L 1611.71,877.301 L 1608.83,871.531 L 1605.95,868.652 L 1605.95,862.902 L 1603.07,860.023 L 1600.19,854.98 L 1597.31,849.223 L 1595.15,846.332 L 1589.39,840.582 L 1586.51,837.703 L 1583.63,831.934 L 1577.87,826.184 L 1574.99,823.301 L 1569.23,817.543 L 1563.47,814.652 L 1560.59,811.773 L 1554.83,806.73 L 1551.95,806.73 L 1546.91,803.852 L 1544.03,800.98 L 1538.27,798.102 L 1532.51,798.102 L 1529.63,795.223 L 1520.99,795.223 L 1518.11,792.344 L 1515.23,792.344 L 1512.35,792.344 L 1509.47,792.344 L 1506.59,792.344 L 1503.71,795.223 L 1498.67,795.223 L 1495.79,798.102 L 1487.15,798.102 L 1484.27,800.98 L 1478.51,803.852 L 1475.63,806.73 L 1469.87,806.73 L 1464.11,811.773 L 1461.23,814.652 L 1456.19,817.543 L 1453.31,823.301 L 1447.55,826.184 L 1444.68,831.934 L 1438.91,837.703 L 1436.03,840.582 L 1433.15,846.332 L 1430.28,849.223 L 1424.51,854.98 L 1424.51,860.023 L 1421.63,862.902 L 1418.75,868.652 L 1415.87,871.531 L 1412.99,877.301 L 1410.83,883.062 L 1410.83,888.812 L 1407.95,894.582 L 1405.07,900.344 L 1402.19,905.383 L 1402.19,911.133 L 1399.32,919.781 L 1396.43,925.543 L 1396.43,931.301 L 1393.55,937.062 L 1390.67,945.691 L 1390.67,950.73 L 1387.79,956.504 L 1387.79,962.262 L 1384.92,968.012 L 1384.92,979.543 L 1382.03,985.293 L 1382.03,996.094 L 1379.15,1001.86 L 1379.15,1024.89 L 1376.27,1030.66 L 1376.27,1058.74 L 1373.39,1064.49 L 1373.39,1180.42 L 1376.27,1189.05 L 1376.27,1220.73 L 1379.15,1231.54 L 1379.15,1243.06 L 1382.03,1254.58 L 1384.92,1266.09 L 1384.92,1279.78 L 1387.79,1294.19 L 1390.67,1305.7 L 1396.43,1319.38 L 1399.32,1333.78 L 1402.19,1348.18 L 1407.95,1362.58 L 1412.99,1373.38 L 1418.75,1387.78 L 1424.51,1402.18 L 1430.28,1412.99 L 1438.91,1424.5 L 1444.68,1433.14 L 1453.31,1444.67 L 1458.35,1453.3 L 1466.99,1458.34 L 1472.75,1466.98 L 1481.39,1469.86 L 1490.04,1475.62 L 1498.67,1478.5 L 1503.71,1478.5 L 1512.35,1481.38 L 1520.99,1478.5 L 1529.63,1478.5 L 1535.39,1475.62 L 1544.03,1469.86 L 1551.95,1466.98 L 1557.71,1458.34 L 1566.35,1453.3 L 1574.99,1444.67 z"
             id="path41"
             style="fill:none;stroke:#000000;stroke-width:2.1500001;stroke-linecap:butt;stroke-linejoin:miter;stroke-miterlimit:4;stroke-dasharray:none;stroke-opacity:1" /><path
             d="M 729.711,1146.58 C 738.352,1143.71 746.988,1143.71 755.629,1143.71 C 761.391,1143.71 766.43,1143.71 772.191,1146.58 C 789.469,1146.58 800.988,1152.35 814.672,1160.99 C 820.43,1166.74 829.07,1172.52 834.828,1180.43 C 843.469,1189.06 852.109,1200.59 860.031,1212.11 C 874.441,1234.44 883.07,1260.34 885.949,1285.55 C 885.949,1297.07 885.949,1308.59 885.949,1319.39 C 885.949,1342.43 883.07,1362.59 880.191,1384.92 C 871.551,1410.83 857.148,1436.03 837.711,1456.19 C 817.551,1475.63 792.352,1484.26 764.27,1487.15 C 764.27,1487.15 764.27,1487.15 761.391,1487.15 C 732.59,1487.15 704.512,1472.76 684.352,1453.31 C 672.828,1441.8 664.91,1430.27 656.27,1418.75 C 647.629,1405.07 638.988,1387.79 636.109,1370.51 C 630.352,1351.08 627.469,1330.91 627.469,1311.47 C 627.469,1302.83 627.469,1291.32 630.352,1282.67 C 630.352,1266.1 636.109,1251.71 641.871,1234.44 C 650.512,1214.99 662.031,1194.83 675.711,1178.26 C 684.352,1169.63 692.988,1163.87 701.629,1158.11 C 710.27,1155.23 721.07,1149.46 729.711,1146.58"
             id="path43"
             style="fill:#ffffff;fill-opacity:1;fill-rule:nonzero;stroke:none" /><path
             d="M 729.711,1146.58 C 738.352,1143.71 746.988,1143.71 755.629,1143.71 C 761.391,1143.71 766.43,1143.71 772.191,1146.58 C 789.469,1146.58 800.988,1152.35 814.672,1160.99 C 820.43,1166.74 829.07,1172.52 834.828,1180.43 C 843.469,1189.06 852.109,1200.59 860.031,1212.11 C 874.441,1234.44 883.07,1260.34 885.949,1285.55 C 885.949,1297.07 885.949,1308.59 885.949,1319.39 C 885.949,1342.43 883.07,1362.59 880.191,1384.92 C 871.551,1410.83 857.148,1436.03 837.711,1456.19 C 817.551,1475.63 792.352,1484.26 764.27,1487.15 C 764.27,1487.15 764.27,1487.15 761.391,1487.15 C 732.59,1487.15 704.512,1472.76 684.352,1453.31 C 672.828,1441.8 664.91,1430.27 656.27,1418.75 C 647.629,1405.07 638.988,1387.79 636.109,1370.51 C 630.352,1351.08 627.469,1330.91 627.469,1311.47 C 627.469,1302.83 627.469,1291.32 630.352,1282.67 C 630.352,1266.1 636.109,1251.71 641.871,1234.44 C 650.512,1214.99 662.031,1194.83 675.711,1178.26 C 684.352,1169.63 692.988,1163.87 701.629,1158.11 C 710.27,1155.23 721.07,1149.46 729.711,1146.58 z"
             id="path45"
             style="fill:none;stroke:#000000;stroke-width:2.1500001;stroke-linecap:butt;stroke-linejoin:miter;stroke-miterlimit:4;stroke-dasharray:none;stroke-opacity:1" /></g></g></g></g></svg>